{
  "accessors": [
    {
      "bufferView": 2,
      "componentType": 5126,
      "count": 34964,
      "max": [
        8.7166328430175781,
        1.8561220169067383,
        19.449905395507812
      ],
      "min": [
        -12.961947441101074,
        -4.383152961730957,
        -12.452261924743652
      ],
      "type": "VEC3"
    },
    {
      "bufferView": 2,
      "byteOffset": 419568,
      "componentType": 5126,
      "count": 34964,
      "max": [
        0.99975913763046265,
        0.99994033575057983,
        0.99978142976760864
      ],
      "min": [
        -0.99952167272567749,
        -0.9999997615814209,
        -0.99973088502883911
      ],
      "type": "VEC3"
    },
    {
      "bufferView": 3,
      "componentType": 5126,
      "count": 34964,
      "max": [
        0.99999552965164185,
        0.90596497058868408,
        0.99980902671813965,
        1
      ],
      "min": [
        -0.99997156858444214,
        -0.84484606981277466,
        -0.99998390674591064,
        -1
      ],
      "type": "VEC4"
    },
    {
      "bufferView": 1,
      "componentType": 5126,
      "count": 34964,
      "max": [
        0.97551178932189941,
        0.99792188405990601
      ],
      "min": [
        0.0004666467139031738,
        0.095376372337341309
      ],
      "type": "VEC2"
    },
    {
      "bufferView": 0,
      "componentType": 5125,
      "count": 201975,
      "max": [
        34963
      ],
      "min": [
        0
      ],
      "type": "SCALAR"
    },
    {
      "bufferView": 2,
      "byteOffset": 839136,
      "componentType": 5126,
      "count": 33724,
      "max": [
        21.130260467529297,
        1.956289529800415,
        21.654806137084961
      ],
      "min": [
        -10.731526374816895,
        -4.5213589668273926,
        -14.312139511108398
      ],
      "type": "VEC3"
    },
    {
      "bufferView": 2,
      "byteOffset": 1243824,
      "componentType": 5126,
      "count": 33724,
      "max": [
        0.99968475103378296,
        0.99985957145690918,
        0.99976760149002075
      ],
      "min": [
        -0.95591193437576294,
        -0.99999994039535522,
        -0.99865835905075073
      ],
      "type": "VEC3"
    },
    {
      "bufferView": 3,
      "byteOffset": 559424,
      "componentType": 5126,
      "count": 33724,
      "max": [
        0.99999392032623291,
        0.67921918630599976,
        0.99998188018798828,
        1
      ],
      "min": [
        -0.99999904632568359,
        -0.79836386442184448,
        -0.99970752000808716,
        -1
      ],
      "type": "VEC4"
    },
    {
      "bufferView": 1,
      "byteOffset": 279712,
      "componentType": 5126,
      "count": 33724,
      "max": [
        0.97002363204956055,
        0.99782276153564453
      ],
      "min": [
        0.00062924541998654604,
        0.099615752696990967
      ],
      "type": "VEC2"
    },
    {
      "bufferView": 0,
      "byteOffset": 807900,
      "componentType": 5125,
      "count": 196356,
      "max": [
        33723
      ],
      "min": [
        0
      ],
      "type": "SCALAR"
    },
    {
      "bufferView": 2,
      "byteOffset": 1648512,
      "componentType": 5126,
      "count": 23284,
      "max": [
        23.458602905273438,
        2.0855855941772461,
        31.342617034912109
      ],
      "min": [
        -15.687520027160645,
        -4.5213589668273926,
        -18.881065368652344
      ],
      "type": "VEC3"
    },
    {
      "bufferView": 2,
      "byteOffset": 1927920,
      "componentType": 5126,
      "count": 23284,
      "max": [
        0.99989879131317139,
        0.99994009733200073,
        0.99999827146530151
      ],
      "min": [
        -0.99984931945800781,
        -0.99999988079071045,
        -0.99994748830795288
      ],
      "type": "VEC3"
    },
    {
      "bufferView": 3,
      "byteOffset": 1099008,
      "componentType": 5126,
      "count": 23284,
      "max": [
        0.9999956488609314,
        0.87990623712539673,
        0.99999892711639404,
        1
      ],
      "min": [
        -0.99999988079071045,
        -0.96773189306259155,
        -0.99997687339782715,
        -1
      ],
      "type": "VEC4"
    },
    {
      "bufferView": 1,
      "byteOffset": 549504,
      "componentType": 5126,
      "count": 23284,
      "max": [
        0.99785888195037842,
        0.99608635902404785
      ],
      "min": [
        0.0019950228743255138,
        0.076386809349060059
      ],
      "type": "VEC2"
    },
    {
      "bufferView": 0,
      "byteOffset": 1593324,
      "componentType": 5125,
      "count": 124488,
      "max": [
        23283
      ],
      "min": [
        0
      ],
      "type": "SCALAR"
    },
    {
      "bufferView": 2,
      "byteOffset": 2207328,
      "componentType": 5126,
      "count": 79,
      "max": [
        20.548721313476562,
        1.3586851358413696,
        -2.6157205104827881
      ],
      "min": [
        -4.371821403503418,
        -3.2462563514709473,
        -9.5994644165039062
      ],
      "type": "VEC3"
    },
    {
      "bufferView": 2,
      "byteOffset": 2208276,
      "componentType": 5126,
      "count": 79,
      "max": [
        0.97937041521072388,
        0.99989348649978638,
        0.74880737066268921
      ],
      "min": [
        -0.89904493093490601,
        -0.99924671649932861,
        -0.45126017928123474
      ],
      "type": "VEC3"
    },
    {
      "bufferView": 0,
      "byteOffset": 2091276,
      "componentType": 5125,
      "count": 159,
      "max": [
        78
      ],
      "min": [
        0
      ],
      "type": "SCALAR"
    }
  ],
  "asset": {
    "extras": {
      "author": "AndrasKis (https://sketchfab.com/AndrasKis)",
      "license": "CC-BY-4.0 (http://creativecommons.org/licenses/by/4.0/)",
      "source": "https://sketchfab.com/models/e1f7e4a106f349f88a0a9cfe1c1712d9",
      "title": "DC3 Plane Wreckage On Iceland (4)"
    },
    "generator": "Sketchfab-3.29.4-rc4",
    "version": "2.0"
  },
  "bufferViews": [
    {
      "buffer": 0,
      "byteLength": 2091912,
      "byteOffset": 0,
      "name": "floatBufferViews",
      "target": 34963
    },
    {
      "buffer": 0,
      "byteLength": 735776,
      "byteOffset": 2091912,
      "byteStride": 8,
      "name": "floatBufferViews",
      "target": 34962
    },
    {
      "buffer": 0,
      "byteLength": 2209224,
      "byteOffset": 2827688,
      "byteStride": 12,
      "name": "floatBufferViews",
      "target": 34962
    },
    {
      "buffer": 0,
      "byteLength": 1471552,
      "byteOffset": 5036912,
      "byteStride": 16,
      "name": "floatBufferViews",
      "target": 34962
    }
  ],
  "buffers": [
    {
      "byteLength": 6508464,
      "uri": "scene.bin"
    }
  ],
  "extensionsUsed": [
    "KHR_materials_unlit"
  ],
  "images": [
    {
      "uri": "textures/Texture_0_baseColor.jpeg"
    },
    {
      "uri": "textures/Texture_2_baseColor.jpeg"
    },
    {
      "uri": "textures/Texture_1_baseColor.jpeg"
    }
  ],
  "materials": [
    {
      "doubleSided": true,
      "emissiveFactor": [
        0,
        0,
        0
      ],
      "extensions": {
        "KHR_materials_unlit": {}
      },
      "name": "Texture_0",
      "pbrMetallicRoughness": {
        "baseColorFactor": [
          1,
          1,
          1,
          1
        ],
        "baseColorTexture": {
          "index": 0,
          "texCoord": 0
        },
        "metallicFactor": 0,
        "roughnessFactor": 1
      }
    },
    {
      "doubleSided": true,
      "emissiveFactor": [
        0,
        0,
        0
      ],
      "extensions": {
        "KHR_materials_unlit": {}
      },
      "name": "Texture_1",
      "pbrMetallicRoughness": {
        "baseColorFactor": [
          1,
          1,
          1,
          1
        ],
        "baseColorTexture": {
          "index": 2,
          "texCoord": 0
        },
        "metallicFactor": 0,
        "roughnessFactor": 1
      }
    },
    {
      "doubleSided": true,
      "emissiveFactor": [
        0,
        0,
        0
      ],
      "extensions": {
        "KHR_materials_unlit": {}
      },
      "name": "Texture_2",
      "pbrMetallicRoughness": {
        "baseColorFactor": [
          1,
          1,
          1,
          1
        ],
        "baseColorTexture": {
          "index": 1,
          "texCoord": 0
        },
        "metallicFactor": 0,
        "roughnessFactor": 1
      }
    },
    {
      "doubleSided": true,
      "emissiveFactor": [
        0,
        0,
        0
      ],
      "extensions": {
        "KHR_materials_unlit": {}
      },
      "name": "Untextured",
      "pbrMetallicRoughness": {
        "baseColorFactor": [
          0.50196099999999999,
          0.50196099999999999,
          0.50196099999999999,
          1
        ],
        "metallicFactor": 0,
        "roughnessFactor": 1
      }
    }
  ],
  "meshes": [
    {
      "primitives": [
        {
          "attributes": {
            "NORMAL": 1,
            "POSITION": 0,
            "TANGENT": 2,
            "TEXCOORD_0": 3
          },
          "indices": 4,
          "material": 0,
          "mode": 4
        }
      ]
    },
    {
      "primitives": [
        {
          "attributes": {
            "NORMAL": 6,
            "POSITION": 5,
            "TANGENT": 7,
            "TEXCOORD_0": 8
          },
          "indices": 9,
          "material": 1,
          "mode": 4
        }
      ]
    },
    {
      "primitives": [
        {
          "attributes": {
            "NORMAL": 11,
            "POSITION": 10,
            "TANGENT": 12,
            "TEXCOORD_0": 13
          },
          "indices": 14,
          "material": 2,
          "mode": 4
        }
      ]
    },
    {
      "primitives": [
        {
          "attributes": {
            "NORMAL": 16,
            "POSITION": 15
          },
          "indices": 17,
          "material": 3,
          "mode": 4
        }
      ]
    }
  ],
  "nodes": [
    {
      "children": [
        1
      ],
      "name": "RootNode (gltf orientation matrix)",
      "rotation": [
        -0.70710678118654746,
        -0,
        -0,
        0.70710678118654757
      ]
    },
    {
      "children": [
        2
      ],
      "matrix": [
        1,
        0,
        0,
        0,
        0,
        0,
        -1,
        0,
        0,
        1,
        0,
        0,
        0,
        -7.4485774040222168,
        5.0127358436584473,
        1
      ],
      "name": "RootNode (model correction matrix)"
    },
    {
      "children": [
        3,
        4,
        5,
        6
      ],
      "name": "mesh.obj.cleaner"
    },
    {
      "mesh": 0,
      "name": ""
    },
    {
      "mesh": 1,
      "name": ""
    },
    {
      "mesh": 2,
      "name": ""
    },
    {
      "mesh": 3,
      "name": ""
    }
  ],
  "samplers": [
    {
      "magFilter": 9729,
      "minFilter": 9987,
      "wrapS": 10497,
      "wrapT": 10497
    }
  ],
  "scene": 0,
  "scenes": [
    {
      "name": "OSG_Scene",
      "nodes": [
        0
      ]
    }
  ],
  "textures": [
    {
      "sampler": 0,
      "source": 0
    },
    {
      "sampler": 0,
      "source": 1
    },
    {
      "sampler": 0,
      "source": 2
    }
  ]
}

